<?xml version="1.0" encoding="UTF-8"?>
<svg version="1.1" xmlns="http://www.w3.org/2000/svg" width="64" height="64">
<path d="M0 0 C21.12 0 42.24 0 64 0 C64 21.12 64 42.24 64 64 C42.88 64 21.76 64 0 64 C0 42.88 0 21.76 0 0 Z " fill="#F8F8FB" transform="translate(0,0)"/>
<path d="M0 0 C2.625 2.29296875 2.625 2.29296875 5 5.1875 C7.87629593 8.56879446 10.63621684 11.73423341 14.0625 14.5625 C17 17 17 17 18 19 C18.01953125 21.0234375 18.01953125 21.0234375 17.8125 23.375 C17.75707031 24.14585938 17.70164063 24.91671875 17.64453125 25.7109375 C16.75329125 28.87618985 15.61091018 29.98889 13 32 C10.22858117 32.39806287 7.86195576 32.56185389 5.09375 32.53125 C4.33203491 32.5350769 3.57031982 32.53890381 2.78552246 32.54284668 C1.17845332 32.54556313 -0.42866024 32.53822044 -2.03564453 32.52148438 C-4.49221587 32.50006786 -6.94586311 32.52129178 -9.40234375 32.546875 C-10.96615227 32.54423167 -12.52995898 32.53910658 -14.09375 32.53125 C-14.82613892 32.53934692 -15.55852783 32.54744385 -16.31311035 32.55578613 C-19.79139134 32.49199625 -21.66117848 32.26368211 -24.44287109 30.09887695 C-27.04141012 26.59626799 -27.54555055 23.29893832 -27 19 C-24.2360471 13.94447887 -19.34972803 10.62477335 -15 7 C-13.37656762 5.19103249 -11.82514354 3.34291943 -10.296875 1.453125 C-7.21636136 -1.99853486 -4.19544014 -1.00886114 0 0 Z " fill="#2E37E1" transform="translate(36,26)"/>
<path d="M0 0 C1.32 0 2.64 0 4 0 C4 6.6 4 13.2 4 20 C-6 20 -6 20 -8.625 18.375 C-10.42208081 15.27095134 -10.58890625 13.53343747 -10 10 C-8.375 7.625 -8.375 7.625 -6 6 C-2.75 5.75 -2.75 5.75 0 6 C0 4.02 0 2.04 0 0 Z " fill="#E8E9FB" transform="translate(26,34)"/>
<path d="M0 0 C2.5 0.625 2.5 0.625 4.8125 2.75 C7.16861038 6.76411398 7.01606037 9.50341846 5.9375 13.9375 C4.5 15.625 4.5 15.625 1.125 16.6875 C-2.5 16.625 -2.5 16.625 -4.9375 14.5625 C-6.75925959 11.13759198 -7.13674183 9.445451 -6.5 5.625 C-4.63463407 2.44696916 -3.6217915 0.90544788 0 0 Z " fill="#353EE2" transform="translate(23.5,4.375)"/>
<path d="M0 0 C5.42465753 0.48219178 5.42465753 0.48219178 7.875 2.6875 C9.38185358 5.78492126 9.55651279 7.59135918 9 11 C6.875 13.9375 6.875 13.9375 4 16 C0.8125 16.0625 0.8125 16.0625 -2 15 C-3.86564391 12.71034611 -4.00108037 10.99153709 -4.375 8.0625 C-3.91444612 4.30130997 -2.55991819 2.71991308 0 0 Z " fill="#343CE2" transform="translate(37,5)"/>
<path d="M0 0 C2.5625 0.5625 2.5625 0.5625 4.875 2.6875 C6.84819575 6.04924091 7.13354749 7.72832397 6.5625 11.5625 C5.5 13.9375 5.5 13.9375 3.5625 15.5625 C0 16 0 16 -3.4375 15.5625 C-5.90553687 11.86044469 -5.99038088 8.85596556 -5.4375 4.5625 C-3.98281694 1.50000935 -3.30235207 0.76208125 0 0 Z " fill="#3039E2" transform="translate(50.4375,17.4375)"/>
<path d="M0 0 C2.875 0.3125 2.875 0.3125 6 1 C7.99825961 3.99738941 8.27550398 4.63347508 8.25 8 C8.25515625 8.680625 8.2603125 9.36125 8.265625 10.0625 C8 12 8 12 6 15 C2.5625 15.4375 2.5625 15.4375 -1 15 C-3.60055327 12.8188908 -3.93947563 11.4063779 -4.4375 8.0625 C-3.90475283 4.33326978 -2.54808744 2.70734291 0 0 Z " fill="#2F38E1" transform="translate(10,18)"/>
<path d="M0 0 C1.32 0 2.64 0 4 0 C4 3.3 4 6.6 4 10 C5.65 10 7.3 10 9 10 C9 6.7 9 3.4 9 0 C10.32 0 11.64 0 13 0 C13 4.62 13 9.24 13 14 C11.411875 14.061875 9.82375 14.12375 8.1875 14.1875 C7.29417969 14.22230469 6.40085937 14.25710937 5.48046875 14.29296875 C3 14 3 14 1.1875 12.84375 C-0.47611355 10.26077106 -0.29488288 8.35501492 -0.1875 5.3125 C-0.16042969 4.31863281 -0.13335938 3.32476562 -0.10546875 2.30078125 C-0.07066406 1.54152344 -0.03585938 0.78226563 0 0 Z " fill="#E9EAFB" transform="translate(32,40)"/>
<path d="M0 0 C1.98 0 3.96 0 6 0 C6 1.98 6 3.96 6 6 C4.33388095 6.042721 2.66617115 6.04063832 1 6 C0 5 0 5 -0.0625 2.4375 C-0.041875 1.633125 -0.02125 0.82875 0 0 Z " fill="#353EE2" transform="translate(20,44)"/>
</svg>
