<?xml version="1.0" encoding="UTF-8"?>
<svg version="1.1" xmlns="http://www.w3.org/2000/svg" width="32" height="32">
<path d="M0 0 C1.14984375 -0.00386719 2.2996875 -0.00773438 3.484375 -0.01171875 C4.68578125 -0.00011719 5.8871875 0.01148437 7.125 0.0234375 C8.32640625 0.01183594 9.5278125 0.00023438 10.765625 -0.01171875 C12.49039062 -0.00591797 12.49039062 -0.00591797 14.25 0 C15.83167969 0.00507568 15.83167969 0.00507568 17.4453125 0.01025391 C20.125 0.3984375 20.125 0.3984375 21.96728516 1.55615234 C23.61461838 4.17757294 23.51354594 6.1910385 23.5234375 9.2734375 C23.52923828 10.99820312 23.52923828 10.99820312 23.53515625 12.7578125 C23.52355469 13.95921875 23.51195312 15.160625 23.5 16.3984375 C23.51160156 17.59984375 23.52320313 18.80125 23.53515625 20.0390625 C23.53128906 21.18890625 23.52742188 22.33875 23.5234375 23.5234375 C23.52005371 24.57789062 23.51666992 25.63234375 23.51318359 26.71875 C23.125 29.3984375 23.125 29.3984375 21.96728516 31.24072266 C19.34586456 32.88805588 17.332399 32.78698344 14.25 32.796875 C13.10015625 32.80074219 11.9503125 32.80460937 10.765625 32.80859375 C9.56421875 32.79699219 8.3628125 32.78539062 7.125 32.7734375 C5.92359375 32.78503906 4.7221875 32.79664063 3.484375 32.80859375 C1.75960938 32.80279297 1.75960938 32.80279297 0 32.796875 C-1.05445313 32.79349121 -2.10890625 32.79010742 -3.1953125 32.78662109 C-5.875 32.3984375 -5.875 32.3984375 -7.71728516 31.24072266 C-9.36461838 28.61930206 -9.26354594 26.6058365 -9.2734375 23.5234375 C-9.27730469 22.37359375 -9.28117188 21.22375 -9.28515625 20.0390625 C-9.27355469 18.83765625 -9.26195312 17.63625 -9.25 16.3984375 C-9.26160156 15.19703125 -9.27320313 13.995625 -9.28515625 12.7578125 C-9.28128906 11.60796875 -9.27742187 10.458125 -9.2734375 9.2734375 C-9.27005371 8.21898437 -9.26666992 7.16453125 -9.26318359 6.078125 C-8.875 3.3984375 -8.875 3.3984375 -7.71728516 1.55615234 C-5.09586456 -0.09118088 -3.082399 0.00989156 0 0 Z " fill="#210B1B" transform="translate(8.875,-0.3984375)"/>
<path d="M0 0 C1.65 0.33 3.3 0.66 5 1 C5.66 1.99 6.32 2.98 7 4 C7.99 4.33 8.98 4.66 10 5 C10 6.65 10 8.3 10 10 C7.525 9.505 7.525 9.505 5 9 C5.04640625 9.74765625 5.0928125 10.4953125 5.140625 11.265625 C5.43341214 19.25453113 5.43341214 19.25453113 3.4375 22.6875 C-0.01335051 24.54565027 -2.13588434 24.61012353 -6 24 C-9.42123173 21.52506641 -10.79477021 20.11736219 -11.5625 15.9375 C-10.87017778 12.32203951 -9.99948609 11.10774698 -7 9 C-4.25 8.75 -4.25 8.75 -2 9 C-2 10.32 -2 11.64 -2 13 C-3.32 13 -4.64 13 -6 13 C-6 14.98 -6 16.96 -6 19 C-4.35 18.67 -2.7 18.34 -1 18 C-0.505 9.09 -0.505 9.09 0 0 Z " fill="#A7E7E5" transform="translate(16,4)"/>
<path d="M0 0 C0.99 0 1.98 0 3 0 C3.66 0.99 4.32 1.98 5 3 C5.99 3.33 6.98 3.66 8 4 C8 5.65 8 7.3 8 9 C6.35 8.67 4.7 8.34 3 8 C3.04640625 8.74765625 3.0928125 9.4953125 3.140625 10.265625 C3.43341214 18.25453113 3.43341214 18.25453113 1.4375 21.6875 C-1.822954 23.44312908 -4.35645778 23.28027248 -8 23 C-8 22.67 -8 22.34 -8 22 C-7.43410156 21.87882812 -6.86820313 21.75765625 -6.28515625 21.6328125 C-5.55167969 21.46523438 -4.81820313 21.29765625 -4.0625 21.125 C-3.33160156 20.96257813 -2.60070312 20.80015625 -1.84765625 20.6328125 C0.20700294 20.17038477 0.20700294 20.17038477 1 18 C1.2275015 16.12943209 1.40962811 14.25314042 1.5625 12.375 C1.64628906 11.37210938 1.73007812 10.36921875 1.81640625 9.3359375 C1.87699219 8.56507812 1.93757813 7.79421875 2 7 C1.34 6.67 0.68 6.34 0 6 C0 4.02 0 2.04 0 0 Z " fill="#E19DAE" transform="translate(18,5)"/>
<path d="M0 0 C1.65 0 3.3 0 5 0 C3.68 0.33 2.36 0.66 1 1 C1.01160156 2.28777344 1.02320313 3.57554688 1.03515625 4.90234375 C1.0445327 6.58072772 1.05363305 8.25911326 1.0625 9.9375 C1.07087891 10.78763672 1.07925781 11.63777344 1.08789062 12.51367188 C1.09111328 13.32255859 1.09433594 14.13144531 1.09765625 14.96484375 C1.10289307 15.7137085 1.10812988 16.46257324 1.11352539 17.23413086 C1 19 1 19 0 20 C-1.66617115 20.04063832 -3.33388095 20.042721 -5 20 C-5 18.02 -5 16.04 -5 14 C-3.68 14 -2.36 14 -1 14 C-1 12.68 -1 11.36 -1 10 C-2.32 9.67 -3.64 9.34 -5 9 C-3.35 9 -1.7 9 0 9 C0 6.03 0 3.06 0 0 Z " fill="#5F374F" transform="translate(15,3)"/>
<path d="M0 0 C0.33 0 0.66 0 1 0 C1 1.98 1 3.96 1 6 C1.99 6.33 2.98 6.66 4 7 C3.64989059 17.15317287 3.64989059 17.15317287 0.9375 20.6875 C0.298125 21.120625 -0.34125 21.55375 -1 22 C-1.33 21.01 -1.66 20.02 -2 19 C-1.67 18.67 -1.34 18.34 -1 18 C-0.84417697 16.65984779 -0.74955858 15.31241097 -0.68359375 13.96484375 C-0.62075195 12.75151367 -0.62075195 12.75151367 -0.55664062 11.51367188 C-0.51732422 10.66353516 -0.47800781 9.81339844 -0.4375 8.9375 C-0.39431641 8.08349609 -0.35113281 7.22949219 -0.30664062 6.34960938 C-0.20023298 4.23327963 -0.09958269 2.11666187 0 0 Z " fill="#F6ECEC" transform="translate(17,5)"/>
<path d="M0 0 C-2 1.33333333 -4 2.66666667 -6 4 C-6.73606499 7.56769552 -6.73606499 7.56769552 -7 11 C-7.66 10.67 -8.32 10.34 -9 10 C-9.32523926 6.42236811 -9.42956587 4.60457419 -7.3125 1.625 C-4.61209763 -0.27258004 -3.22939919 -0.35882213 0 0 Z " fill="#59D3D1" transform="translate(14,13)"/>
<path d="M0 0 C0 0.99 0 1.98 0 3 C-1.32 3 -2.64 3 -4 3 C-4 4.65 -4 6.3 -4 8 C-4.99 7.01 -5.98 6.02 -7 5 C-5.22678182 1.07358831 -4.52021524 0 0 0 Z " fill="#FAD2DA" transform="translate(14,14)"/>
<path d="M0 0 C1.32 0 2.64 0 4 0 C4 1.65 4 3.3 4 5 C2.68 5 1.36 5 0 5 C0 3.35 0 1.7 0 0 Z " fill="#350F23" transform="translate(11,18)"/>
</svg>
